<svg width="171" height="129" viewBox="0 0 171 129" fill="none" xmlns="http://www.w3.org/2000/svg">
<path d="M46.4566 78.1061C62.5194 78.1061 75.5409 65.021 75.5409 48.8798C75.5409 32.7385 62.5194 19.6535 46.4566 19.6535C30.3938 19.6535 17.3723 32.7385 17.3723 48.8798C17.3723 65.021 30.3938 78.1061 46.4566 78.1061Z" fill="#FA9E42"/>
<g filter="url(#filter0_f)">
<path d="M44.3552 44.7236C54.0214 39.5904 59.428 30.8559 56.431 25.2146C53.4341 19.5732 43.1685 19.1613 33.5023 24.2944C23.836 29.4276 18.4295 38.1621 21.4265 43.8034C24.4234 49.4448 34.689 49.8568 44.3552 44.7236Z" fill="#F8E36F"/>
</g>
<g filter="url(#filter1_d)">
<path d="M103.694 97H47.169C41.6857 96.9958 36.4165 94.8711 32.4646 91.0705C28.5127 87.27 26.1845 82.0884 25.9673 76.6104C25.7501 71.1325 27.6608 65.7829 31.2995 61.6815C34.9381 57.5802 40.0225 55.0451 45.4883 54.607C46.2677 49.1042 48.7531 43.9842 52.5948 39.9673C56.4365 35.9504 61.4411 33.2388 66.9045 32.2139C72.368 31.189 78.0154 31.9025 83.0521 34.2539C88.0889 36.6054 92.2615 40.4764 94.983 45.3225C99.9746 43.5949 105.368 43.3931 110.475 44.7427C115.582 46.0923 120.171 48.9323 123.656 52.9003C127.142 56.8683 129.367 61.7845 130.046 67.0218C130.726 72.2592 129.83 77.5802 127.472 82.3062C126.089 86.5761 123.388 90.298 119.757 92.9378C116.127 95.5776 111.753 96.9997 107.264 97H103.694Z" fill="url(#paint0_linear)"/>
<path d="M107.264 96.7047C109.544 96.7047 111.785 96.3408 113.925 95.6231C115.995 94.9292 117.938 93.9164 119.701 92.6131C121.444 91.3248 122.971 89.7815 124.241 88.0262C125.527 86.249 126.52 84.2939 127.192 82.2154L127.199 82.1941L127.209 82.1741C128.102 80.3886 128.791 78.4998 129.254 76.5602C129.731 74.5644 129.973 72.5021 129.973 70.4305C129.973 68.6476 129.793 66.866 129.439 65.135C129.094 63.4482 128.579 61.789 127.908 60.2035C127.249 58.6467 126.434 57.1452 125.485 55.7406C124.545 54.3493 123.465 53.0409 122.276 51.8519C121.087 50.6628 119.778 49.5833 118.387 48.6433C116.982 47.6944 115.48 46.8794 113.923 46.2209C112.337 45.5503 110.677 45.0352 108.99 44.6901C107.259 44.3359 105.477 44.1563 103.694 44.1563C100.741 44.1563 97.8431 44.6421 95.0799 45.6002L94.8467 45.6811L94.7257 45.466C92.477 41.4682 89.206 38.1109 85.2664 35.7569C83.274 34.5664 81.1335 33.6464 78.9044 33.0226C76.6046 32.3789 74.2159 32.0526 71.8045 32.0526C68.561 32.0526 65.3948 32.6362 62.3939 33.7873C59.4949 34.8992 56.8356 36.5055 54.4897 38.5615C52.1572 40.6056 50.2216 43.0175 48.7366 45.7302C47.2151 48.5094 46.2207 51.5094 45.7809 54.6469L45.748 54.8817L45.5115 54.9002C42.8664 55.1072 40.3215 55.8035 37.9475 56.9697C35.6407 58.1029 33.5808 59.6356 31.8251 61.5253C28.2174 65.4081 26.2305 70.467 26.2305 75.7701C26.2305 78.5964 26.7841 81.338 27.8759 83.9187C28.4006 85.1591 29.0501 86.3555 29.8064 87.4746C30.5555 88.5832 31.4157 89.6257 32.3633 90.5731C33.3109 91.5205 34.3536 92.3806 35.4624 93.1296C36.5817 93.8856 37.7784 94.535 39.019 95.0597C41.6002 96.1512 44.3423 96.7047 47.1691 96.7047H103.694H107.264ZM107.264 96.9999H103.694H47.1691C35.442 96.9999 25.9353 87.4949 25.9353 75.7701C25.9353 64.6107 34.5468 55.4622 45.4885 54.6059C47.2983 41.6935 58.3907 31.7574 71.8045 31.7574C81.7558 31.7574 90.4294 37.2257 94.9831 45.3213C97.7121 44.375 100.643 43.8611 103.694 43.8611C118.37 43.8611 130.268 55.7567 130.268 70.4305C130.268 74.6991 129.262 78.7323 127.473 82.3062C124.716 90.8326 116.71 96.9999 107.264 96.9999Z" fill="white" fill-opacity="0.5"/>
</g>
<defs>
<filter id="filter0_f" x="0.59967" y="0.698639" width="76.6582" height="67.6208" filterUnits="userSpaceOnUse" color-interpolation-filters="sRGB">
<feFlood flood-opacity="0" result="BackgroundImageFix"/>
<feBlend mode="normal" in="SourceGraphic" in2="BackgroundImageFix" result="shape"/>
<feGaussianBlur stdDeviation="10" result="effect1_foregroundBlur"/>
</filter>
<filter id="filter1_d" x="5.93527" y="3.75735" width="164.333" height="125.243" filterUnits="userSpaceOnUse" color-interpolation-filters="sRGB">
<feFlood flood-opacity="0" result="BackgroundImageFix"/>
<feColorMatrix in="SourceAlpha" type="matrix" values="0 0 0 0 0 0 0 0 0 0 0 0 0 0 0 0 0 0 127 0" result="hardAlpha"/>
<feOffset dx="10" dy="2"/>
<feGaussianBlur stdDeviation="15"/>
<feColorMatrix type="matrix" values="0 0 0 0 0.501961 0 0 0 0 0.501961 0 0 0 0 0.501961 0 0 0 0.302 0"/>
<feBlend mode="normal" in2="BackgroundImageFix" result="effect1_dropShadow"/>
<feBlend mode="normal" in="SourceGraphic" in2="effect1_dropShadow" result="shape"/>
</filter>
<linearGradient id="paint0_linear" x1="78.109" y1="31.7581" x2="108.407" y2="105.024" gradientUnits="userSpaceOnUse">
<stop stop-color="white" stop-opacity="0.604"/>
<stop offset="1" stop-color="white" stop-opacity="0.2"/>
</linearGradient>
</defs>
</svg>
