<svg width="180" height="135" viewBox="0 0 180 135" fill="none" xmlns="http://www.w3.org/2000/svg">
<g filter="url(#filter0_f)">
<g filter="url(#filter1_d)">
<path d="M109.387 103H44.4094C38.1061 102.995 32.0489 100.553 27.506 96.1838C22.9631 91.8149 20.2867 85.8583 20.037 79.5611C19.7873 73.2639 21.9838 67.1142 26.1666 62.3995C30.3494 57.6848 36.1942 54.7706 42.4774 54.267C43.3734 47.9412 46.2305 42.0554 50.6467 37.4378C55.0629 32.8201 60.816 29.7029 67.0965 28.5248C73.377 27.3467 79.869 28.1668 85.659 30.8699C91.449 33.573 96.2457 38.0231 99.3742 43.5939C105.112 41.608 111.312 41.3759 117.182 42.9273C123.053 44.4786 128.328 47.7431 132.335 52.3044C136.342 56.8657 138.9 62.5169 139.681 68.5373C140.463 74.5578 139.433 80.6745 136.723 86.1074C135.133 91.0162 132.028 95.2951 127.855 98.3301C123.681 101.365 118.653 103 113.492 103H109.387Z" fill="url(#paint0_linear)"/>
<path d="M113.492 102.66C116.112 102.66 118.689 102.242 121.15 101.417C123.529 100.619 125.763 99.4551 127.79 97.9567C129.793 96.4756 131.549 94.7014 133.009 92.6834C134.487 90.6402 135.628 88.3925 136.4 86.0029L136.408 85.9784L136.42 85.9554C137.447 83.9031 138.238 81.732 138.771 79.5025C139.319 77.2082 139.597 74.8377 139.597 72.4568C139.597 70.4074 139.39 68.3593 138.983 66.3694C138.586 64.4304 137.994 62.523 137.223 60.7004C136.466 58.9108 135.529 57.1847 134.438 55.57C133.357 53.9706 132.116 52.4666 130.749 51.0997C129.382 49.7328 127.877 48.4919 126.278 47.4114C124.663 46.3205 122.936 45.3836 121.146 44.6267C119.323 43.8557 117.416 43.2637 115.476 42.8669C113.486 42.4597 111.437 42.2532 109.388 42.2532C105.993 42.2532 102.662 42.8117 99.4853 43.9132L99.2173 44.0061L99.0782 43.7589C96.4932 39.1632 92.733 35.3037 88.2042 32.5977C85.9139 31.2292 83.4533 30.1716 80.8907 29.4544C78.2471 28.7145 75.5011 28.3394 72.729 28.3394C69.0005 28.3394 65.3608 29.0103 61.9112 30.3335C58.5786 31.6118 55.5215 33.4583 52.8248 35.8217C50.1435 38.1716 47.9184 40.9442 46.2113 44.0625C44.4623 47.2574 43.3191 50.7061 42.8136 54.3127L42.7758 54.5827L42.5039 54.604C39.4632 54.8419 36.5377 55.6424 33.8087 56.983C31.1569 58.2857 28.7889 60.0476 26.7706 62.2198C22.6234 66.6833 20.3394 72.4988 20.3394 78.5951C20.3394 81.844 20.9758 84.9956 22.2308 87.9623C22.8341 89.3882 23.5807 90.7635 24.45 92.05C25.3111 93.3244 26.3001 94.5228 27.3894 95.6118C28.4787 96.701 29.6773 97.6897 30.9519 98.5507C32.2387 99.4198 33.6142 100.166 35.0404 100.769C38.0076 102.024 41.1598 102.66 44.4094 102.66H109.388H113.492ZM113.492 103H109.388H44.4094C30.9285 103 20 92.0734 20 78.5951C20 65.7666 29.8994 55.25 42.4774 54.2657C44.558 39.4222 57.3092 28 72.729 28C84.1686 28 94.1393 34.2862 99.3741 43.5925C102.511 42.5048 105.88 41.9139 109.388 41.9139C126.259 41.9139 139.936 55.5886 139.936 72.4568C139.936 77.3628 138.779 81.9995 136.723 86.1072C133.555 95.91 124.351 103 113.492 103Z" fill="white" fill-opacity="0.5"/>
</g>
</g>
<defs>
<filter id="filter0_f" x="16" y="24" width="127.936" height="83" filterUnits="userSpaceOnUse" color-interpolation-filters="sRGB">
<feFlood flood-opacity="0" result="BackgroundImageFix"/>
<feBlend mode="normal" in="SourceGraphic" in2="BackgroundImageFix" result="shape"/>
<feGaussianBlur stdDeviation="2" result="effect1_foregroundBlur"/>
</filter>
<filter id="filter1_d" x="0" y="0" width="179.936" height="135" filterUnits="userSpaceOnUse" color-interpolation-filters="sRGB">
<feFlood flood-opacity="0" result="BackgroundImageFix"/>
<feColorMatrix in="SourceAlpha" type="matrix" values="0 0 0 0 0 0 0 0 0 0 0 0 0 0 0 0 0 0 127 0" result="hardAlpha"/>
<feOffset dx="10" dy="2"/>
<feGaussianBlur stdDeviation="15"/>
<feColorMatrix type="matrix" values="0 0 0 0 0.501961 0 0 0 0 0.501961 0 0 0 0 0.501961 0 0 0 0.302 0"/>
<feBlend mode="normal" in2="BackgroundImageFix" result="effect1_dropShadow"/>
<feBlend mode="normal" in="SourceGraphic" in2="effect1_dropShadow" result="shape"/>
</filter>
<linearGradient id="paint0_linear" x1="79.9767" y1="28.0009" x2="114.805" y2="112.224" gradientUnits="userSpaceOnUse">
<stop stop-color="white" stop-opacity="0.604"/>
<stop offset="1" stop-color="white" stop-opacity="0.2"/>
</linearGradient>
</defs>
</svg>
